<svg height='28px' width='28px'  fill="#FFFFFF" xmlns="http://www.w3.org/2000/svg" xmlns:xlink="http://www.w3.org/1999/xlink" xml:space="preserve" version="1.1" style="shape-rendering:geometricPrecision;text-rendering:geometricPrecision;image-rendering:optimizeQuality;" viewBox="0 0 80 80" x="0px" y="0px" fill-rule="evenodd" clip-rule="evenodd"><defs><style type="text/css">
   
    .fil0 {fill:#FFFFFF}
   
  </style></defs><g><path class="fil0" d="M42.335 37.961l-0.094 0c-0.762,2.074 -2.141,3.114 -4.142,3.114 -1.501,0 -2.708,-0.545 -3.625,-1.629 -0.918,-1.085 -1.379,-2.591 -1.379,-4.509 0,-2.491 0.634,-4.509 1.907,-6.071 1.273,-1.557 2.802,-2.335 4.598,-2.335 1.617,0 2.635,0.633 3.047,1.906l0.066 0 0.036 -0.355c0.071,-0.713 0.666,-1.251 1.382,-1.251l0.866 0c0.407,0 0.758,0.155 1.031,0.458 0.273,0.302 0.392,0.667 0.351,1.072 -0.383,3.764 -0.574,6.277 -0.574,7.532 0,1.518 0.411,2.28 1.239,2.28 0.867,0 1.584,-0.573 2.152,-1.724 0.561,-1.151 0.845,-2.657 0.845,-4.508 0,-2.542 -0.812,-4.621 -2.43,-6.244 -1.618,-1.624 -3.881,-2.435 -6.777,-2.435 -3.108,0 -5.693,1.084 -7.75,3.252 -2.063,2.163 -3.091,4.803 -3.091,7.923 0,3.018 0.911,5.398 2.73,7.132 1.817,1.741 4.33,2.608 7.538,2.608 1.74,0 3.378,-0.237 4.91,-0.712 0.436,-0.134 0.869,-0.062 1.236,0.209 0.366,0.271 0.565,0.663 0.565,1.119l0 0.134c0,0.612 -0.377,1.132 -0.959,1.322 -1.697,0.554 -3.769,0.83 -6.207,0.83 -4.003,0 -7.267,-1.151 -9.78,-3.447 -2.513,-2.296 -3.77,-5.382 -3.77,-9.262 0,-3.953 1.341,-7.278 4.02,-9.969 2.685,-2.696 6.138,-4.041 10.358,-4.041 3.909,0 7.072,1.045 9.485,3.135 2.418,2.091 3.625,4.843 3.625,8.262 0,2.813 -0.74,5.07 -2.214,6.771 -1.472,1.696 -3.302,2.547 -5.481,2.547 -1.078,0 -1.952,-0.29 -2.624,-0.862 -0.673,-0.578 -1.034,-1.329 -1.09,-2.252zm-2.336 34.039l-26.739 0c-2.516,0 -4.575,-2.059 -4.575,-4.576l0 -30.527c0,-1.638 0.079,-3.768 2.5,-5.835l2.398 -2.046 0 6.036c0,0.757 0.331,1.408 0.945,1.852l1.103 0.801 21.638 16.103c1.646,1.225 3.816,1.225 5.463,0l21.636 -16.103 1.103 -0.801c0.613,-0.444 0.946,-1.095 0.946,-1.852l0 -6.036 2.397 2.046c2.42,2.067 2.501,4.197 2.501,5.835l0 30.527c0,2.517 -2.059,4.576 -4.576,4.576l-26.739 0 -0.001 0zm-19.946 -58.503l39.894 0c2.3,0 4.182,1.881 4.182,4.182l0 17.373 -3.003 2.177 0 -19.421c0,-0.63 -0.514,-1.144 -1.143,-1.144l-39.967 0c-0.629,0 -1.143,0.514 -1.143,1.144l0 19.421 -3.002 -2.177 0 -17.373c0,-2.301 1.882,-4.182 4.182,-4.182zm14.389 -2.288l1.7 -1.45c1.173,-1.002 2.336,-1.759 3.857,-1.759 1.522,0 2.684,0.757 3.858,1.759l1.699 1.45 -11.114 0zm5.73 18.157c-0.978,0 -1.773,0.556 -2.385,1.668 -0.617,1.112 -0.923,2.402 -0.923,3.87 0,1.039 0.211,1.851 0.629,2.429 0.417,0.584 0.956,0.873 1.617,0.873 1.024,0 1.824,-0.551 2.413,-1.646 0.584,-1.095 0.879,-2.557 0.879,-4.392 0,-0.873 -0.206,-1.551 -0.611,-2.051 -0.406,-0.501 -0.946,-0.751 -1.619,-0.751z"></path></g></svg>
