<?xml version="1.0" encoding="UTF-8" standalone="no"?>
<svg width="28px" height="28px" viewBox="0 0 28 28" version="1.1" xmlns="http://www.w3.org/2000/svg" xmlns:xlink="http://www.w3.org/1999/xlink">
    <!-- Generator: Sketch 3.6.1 (26313) - http://www.bohemiancoding.com/sketch -->
    <title>Shape</title>
    <desc>Created with Sketch.</desc>
    <defs></defs>
    <g id="Page-1" stroke="none" stroke-width="1" fill="none" fill-rule="evenodd">
        <g id="cfn-copy" transform="translate(-634.000000, -374.000000)" fill="#FFFFFF">
            <path d="M634,388.355173 C634,394.696476 638.01105,400.077242 643.574266,401.975403 C644.274717,402.107587 644.529973,401.66433 644.529973,401.283641 C644.529973,400.942606 644.517941,400.040231 644.511065,398.842644 C640.6169,399.709771 639.795267,396.918047 639.795267,396.918047 C639.158415,395.259579 638.240523,394.818085 638.240523,394.818085 C636.969397,393.927165 638.336781,393.945671 638.336781,393.945671 C639.741981,394.047012 640.481107,395.42525 640.481107,395.42525 C641.730747,397.618621 643.758188,396.98502 644.555757,396.617549 C644.682955,395.689617 645.044783,395.057778 645.444427,394.698238 C642.335799,394.336054 639.067313,393.104981 639.067313,387.604368 C639.067313,386.036667 639.613064,384.755364 640.50861,383.751648 C640.365082,383.388583 639.88465,381.929272 640.646122,379.953563 C640.646122,379.953563 641.821848,379.566705 644.495595,381.42433 C645.612879,381.106207 646.810092,380.946705 648.00043,380.941418 C649.189908,380.946705 650.387121,381.106207 651.506124,381.42433 C654.178152,379.566705 655.352159,379.953563 655.352159,379.953563 C656.11535,381.929272 655.634918,383.388583 655.49139,383.751648 C656.388655,384.755364 656.930108,386.036667 656.930108,387.604368 C656.930108,393.1182 653.657325,394.331648 650.538384,394.687663 C651.041161,395.13092 651.488075,396.006859 651.488075,397.345441 C651.488075,399.264752 651.471746,400.813066 651.471746,401.283641 C651.471746,401.667855 651.723564,402.113756 652.434329,401.973641 C657.992388,400.071955 662,394.695594 662,388.355173 C662,380.426782 655.731177,374 647.998711,374 C640.268823,374 634,380.426782 634,388.355173 Z" id="Shape"></path>
        </g>
    </g>
</svg>