<?xml version="1.0" encoding="UTF-8" standalone="no"?>
<svg width="41px" height="27px" viewBox="0 0 41 27" version="1.1" xmlns="http://www.w3.org/2000/svg" xmlns:xlink="http://www.w3.org/1999/xlink">
    <!-- Generator: Sketch 3.6.1 (26313) - http://www.bohemiancoding.com/sketch -->
    <title>Group</title>
    <desc>Created with Sketch.</desc>
    <defs></defs>
    <g id="Page-1" stroke="none" stroke-width="1" fill="none" fill-rule="evenodd">
        <g id="cfn-copy" transform="translate(-750.000000, -374.000000)" fill="#FFFFFF">
            <g id="Group" transform="translate(750.000000, 374.000000)">
                <path d="M37.7155981,0 L3.01167464,0 C1.35043062,0 0,1.35043062 0,3.01167464 L0,23.7825837 C0,25.4438278 1.35043062,26.7942584 3.01167464,26.7942584 L37.7155981,26.7942584 C39.3768421,26.7942584 40.7272727,25.4438278 40.7272727,23.7825837 L40.7272727,3.01167464 C40.7272727,1.35043062 39.3768421,0 37.7155981,0 L37.7155981,0 Z M40.2449761,23.2038278 L0.503732057,23.2038278 L0.503732057,7.19157895 L40.2449761,7.19157895 L40.2449761,23.2038278 L40.2449761,23.2038278 Z" id="Shape"></path>
                <path d="M36.815311,13.5900478 C36.6759809,13.5793301 36.9128421,13.4078469 36.7413589,13.2470813 C36.8056651,13.3113876 36.7413589,13.0541627 36.6759809,12.8826794 C36.5366507,12.4861244 36.2054737,12.2503349 35.7435407,11.99311 C35.3480574,11.7680383 35.0576077,11.9180861 34.6942775,11.6822967 C34.7049952,11.6930144 34.5860287,11.5429665 34.4038278,11.5858373 C33.3749282,11.778756 32.731866,12.7111962 32.2174163,13.6007656 C32.1745455,13.6757895 32.2174163,13.8044019 32.1745455,13.8579904 C32.1745455,13.8579904 32.0244976,14.1473684 31.9494737,14.2641914 C31.9494737,14.2641914 31.938756,14.2759809 31.938756,14.2866986 C31.7458373,14.7904306 31.821933,15.4442105 31.5743541,15.9265072 C31.3707177,16.3016268 31.7458373,16.8696651 31.4886124,17.2233493 C31.4350239,17.3090909 31.1456459,17.234067 31.0384689,17.3090909 C30.8133971,17.4912919 30.9848804,18.0046699 31.1134928,18.1129187 C31.2206699,18.1868708 31.3696459,18.1236364 31.4350239,18.2404593 C31.542201,18.4344498 31.3696459,18.722756 31.4350239,18.9906986 C31.5207656,19.36689 31.5314833,19.7087847 31.6279426,20.1482105 C31.756555,20.7066029 31.7244019,21.252134 31.8744498,21.7129952 C32.1102392,22.4428708 32.7093589,21.7987368 33.0319617,22.0238086 C33.0533971,22.0238086 33.3427751,22.2060096 33.4821053,22.0773971 C33.5560574,22.0130909 33.4285167,21.5640191 33.3963636,21.4557703 C33.3534928,21.3485933 33.1177033,20.7376842 33.1820096,20.7698373 C33.0319617,20.7055311 33.1605742,19.7838086 33.1069856,19.5383732 C33.0641148,19.3776077 32.9472919,18.4548134 33.1187751,18.3583541 C33.2045167,18.3047656 33.3642105,18.4012249 33.4403062,18.3905072 C33.8047081,18.3047656 34.244134,18.0143158 34.4799234,17.8439043 C34.9622201,17.4784306 35.7124593,16.8364402 35.9375311,16.5577799 C36.3448038,16.0647656 36.9439234,15.1430431 36.7842297,14.1677321 C36.8045933,14.308134 36.8688995,13.5900478 36.815311,13.5900478 L36.815311,13.5900478 Z M33.8357895,16.4409569 C33.7607656,16.5063349 33.245244,16.9339713 33.1820096,16.8696651 C33.1284211,16.8160766 33.2463158,16.2255311 33.2677512,16.1944498 C33.3856459,15.9800957 33.4606699,15.3048804 33.5249761,15.2930909 C33.6214354,15.2716555 33.5785646,14.8322297 33.6107177,14.7572057 C33.9215311,14.1998852 34.2537799,13.3317512 34.7135694,12.9469856 C35.04689,12.6790431 34.9504306,13.2149282 35.0136651,13.44 C35.3791388,14.6939713 34.5002871,15.8836364 33.8357895,16.4409569 L33.8357895,16.4409569 Z" id="Shape"></path>
                <path d="M30.8991388,16.6445933 C30.8455502,16.7088995 30.5347368,16.9768421 30.5240191,16.9768421 C30.2560766,17.3198086 30.2239234,17.5781053 29.9559809,17.9843062 C29.91311,18.0582584 29.8166507,18.0582584 29.6880383,18.1011292 C29.516555,18.1665072 29.3772249,18.7763445 29.0439043,18.7120383 C28.5401722,18.6155789 27.3719426,19.1085933 27.0514833,18.2940478 C26.9003636,17.9296459 26.8692823,17.6295502 26.7513876,17.1568995 C26.5691866,16.4709665 26.4298565,15.4752919 26.3977033,14.3488612 C26.3977033,14.3274258 26.3762679,14.2952727 26.3548325,14.2952727 L26.3548325,14.3177799 C25.9582775,13.2352919 27.6516746,13.8033301 27.9303349,14.0176842 C28.4662201,14.4249569 28.0053589,15.6360574 28.2304306,16.4934737 C28.3054545,16.7506986 28.2411483,17.2437129 28.2958086,17.4687847 C28.3386794,17.6627751 28.3065263,17.9510813 28.606622,17.6627751 C28.8091866,17.4687847 29.0246124,17.1151005 29.2389665,16.7614163 C29.474756,16.3648612 29.6355215,15.5395981 29.5379904,15.1762679 C29.4844019,14.9619139 29.5379904,14.6178756 29.5272727,14.5867943 C28.9913876,13.1817033 31.177799,13.8901435 31.3492823,14.5439234 C31.4993301,15.0905263 31.1134928,16.3337799 30.8991388,16.6445933 L30.8991388,16.6445933 Z" id="Shape"></path>
                <path d="M24.4899522,15.8300478 C24.3934928,15.8954258 24.4685167,16.0872727 24.5017416,16.1408612 C24.6614354,16.6456651 24.2220096,17.5663158 24.5446124,17.9092823 C24.7268134,18.102201 24.4588708,19.0560766 24.3195407,19.0882297 C23.954067,19.1954067 23.375311,19.2168421 23.3645933,19.077512 C23.3324402,18.6166507 23.3110048,18.0164593 23.2145455,17.5781053 C23.1180861,17.1590431 23.2895694,16.7849952 23.1920383,16.3777225 C23.1062967,16.0240383 23.1609569,15.8632727 22.731177,15.9490144 C22.4632344,16.0026029 21.83089,15.9061435 21.7022775,15.8311196 C21.4450526,15.6810718 21.5736651,14.9962105 21.8201722,14.9104689 C22.3239043,14.7497033 22.2381627,14.9640574 22.3774928,14.9104689 C22.5489761,14.8450909 22.8812249,15.0605167 23.0216268,14.9640574 C23.0634258,14.9319043 23.0430622,14.4924785 22.9991196,14.3960191 C23.0312727,14.4817608 22.9991196,14.1709474 22.9562488,14.0541244 C22.9026603,13.9147943 22.8169187,13.1002488 22.8169187,13.0359426 C22.7204593,12.9073301 22.8276364,12.6822584 22.7633301,12.6929761 C22.7944115,12.6822584 22.6454354,11.9213014 22.6454354,11.9213014 C22.5596938,11.5461818 22.6454354,11.396134 22.5704115,11.0424498 C22.4750239,10.6426794 22.7215311,10.331866 22.6250718,9.935311 C22.5500478,9.6030622 22.582201,8.69205742 22.9573206,8.59559809 C23.3860287,8.49913876 23.9219139,8.77779904 24.1577033,8.92784689 C24.7257416,9.2708134 24.2970335,10.0317703 24.4363636,10.6748325 C24.4792344,10.8677512 24.4149282,11.2750239 24.4256459,11.307177 C24.6935885,12.0038278 24.4149282,13.0005742 24.5864115,13.6114833 C24.6603636,13.8472727 24.3399043,14.6511005 24.4352919,14.7904306 C24.6710813,15.1237512 24.6496459,14.522488 24.6496459,14.4688995 C24.6496459,14.2759809 24.9926124,14.2759809 25.1319426,14.3617225 C25.2058947,14.415311 25.3248612,14.415311 25.4320383,14.4785455 C25.65711,14.6178756 25.7964402,15.0465837 25.9454163,15.1655502 C26.0311579,15.2191388 26.2240766,15.2191388 26.2669474,15.2823732 C26.418067,15.5503158 25.9454163,15.6467751 25.8918278,15.6682105 C25.6688995,15.7443062 24.6614354,15.6907177 24.4899522,15.8300478 L24.4899522,15.8300478 Z" id="Shape"></path>
                <path d="M21.9391388,17.8342584 C21.7462201,17.5663158 21.1138756,17.5352344 20.9959809,17.7174354 C20.6851675,18.1879426 20.3314833,18.0164593 20.0206699,18.1450718 C19.2704306,18.4451675 18.6380861,17.2876555 18.5094737,16.7088995 C18.3594258,15.9908134 19.1739713,16.2480383 19.4847847,16.4088038 C19.4847847,16.3980861 19.7741627,16.4516746 19.7420096,16.4516746 C19.9349282,16.4634641 20.3314833,16.3444976 20.5136842,16.2694737 L20.5244019,16.2694737 C20.556555,16.2694737 20.8352153,16.1730144 20.845933,16.1526507 C20.8888038,16.0669091 20.7709091,15.5621053 20.8030622,15.5621053 C20.6744498,15.5406699 21.028134,13.8258373 20.9959809,13.6650718 C20.845933,13.043445 21.2532057,12.282488 21.1245933,11.885933 C21.0602871,11.6715789 20.3529187,11.4143541 20.2457416,11.3500478 C20.0421053,11.2321531 19.2382775,11.1142584 19.1311005,11.2107177 C18.7345455,11.6179904 18.1129187,12.3039234 17.7485167,12.9684211 C17.7270813,13.0005742 17.6091866,13.3113876 17.5663158,13.3221053 C17.3841148,13.3971292 17.2555024,14.7368421 17.0733014,15.0583732 C16.7946411,15.5513876 16.9768421,17.0733014 17.1590431,17.3101627 C17.5127273,17.7485167 17.6520574,18.0914833 18.2736842,18.498756 C18.6595215,18.7452632 19.3561722,18.7988517 19.5062201,18.7559809 C19.8063158,18.6595215 19.8920574,18.9810526 20.1385646,18.9167464 C20.3636364,18.8513684 20.8352153,18.7988517 21.1460287,18.6916746 C21.3711005,18.6166507 22.292823,18.3272727 21.9391388,17.8342584 L21.9391388,17.8342584 Z M18.9060287,14.704689 C19.002488,14.5449952 19.0882297,13.9437321 19.3025837,13.6554258 C19.3454545,13.5804019 19.5169378,13.3338947 19.5169378,13.323177 C19.5276555,13.323177 19.6455502,14.5985837 19.6133971,14.5332057 C19.6562679,14.6082297 19.6026794,15.3059522 19.5169378,15.3799043 C19.5169378,15.3799043 18.8845933,15.3691866 18.8202871,15.3059522 C18.788134,15.2620096 18.8524402,14.7904306 18.9060287,14.704689 L18.9060287,14.704689 Z" id="Shape"></path>
                <path d="M17.3841148,18.2629665 C17.1483254,18.0914833 16.4302392,17.7270813 16.0872727,17.9307177 C15.390622,18.3690718 14.5653589,18.209378 14.2652632,17.3626794 C14.125933,16.9768421 14.2545455,16.6874641 14.1580861,16.2373206 C14.0080383,15.5299522 14.9297608,16.1719426 15.4870813,16.0551196 C15.8300478,15.9897416 16.3444976,16.1194258 16.4838278,15.8182584 C16.4945455,15.8075407 16.4945455,15.796823 16.5052632,15.796823 C16.5052632,15.796823 16.5052632,15.7743158 16.4945455,15.7743158 C16.5052632,15.7861053 16.5052632,15.7861053 16.5159809,15.7861053 C16.5910048,15.7861053 16.5802871,14.821512 16.6231579,14.6821818 C16.5266986,14.7143349 16.7088995,14.4785455 16.655311,14.3284976 C16.4302392,13.6104115 16.6338756,12.6994067 16.3444976,12.0563445 C16.1944498,11.713378 14.4367464,11.3918469 14.2116746,11.7026603 C13.9330144,12.0884976 13.8044019,12.0884976 13.5150239,12.3350048 C13.4292823,12.399311 13.0327273,12.7529952 12.9255502,12.9137608 C12.6040191,13.4067751 12.2181818,14.639311 12.4218182,15.5288804 C12.5504306,16.1183541 12.2610526,16.772134 12.3682297,17.2222775 C12.3896651,17.2865837 12.5182775,17.3723254 12.5182775,17.4473493 C12.5289952,17.4687847 12.754067,18.1118469 12.9469856,18.2286699 C13.0541627,18.2940478 13.1399043,18.2286699 13.1934928,18.3036938 C13.2470813,18.3572823 13.9008612,18.764555 14.1152153,18.8824498 C14.7154067,19.2254163 16.4623923,18.8502967 16.5266986,18.7859904 C16.5695694,18.7559809 17.7056459,18.498756 17.3841148,18.2629665 L17.3841148,18.2629665 Z M14.6725359,13.3864115 C14.8225837,13.2792344 14.8440191,14.1473684 14.88689,14.3402871 C14.9083254,14.4367464 14.8333014,14.8986794 14.811866,14.9190431 C14.7689952,14.9415502 14.2438278,14.88689 14.2116746,14.8440191 C14.0401914,14.6403828 14.597512,13.44 14.6725359,13.3864115 L14.6725359,13.3864115 Z" id="Shape"></path>
                <path d="M12.5289952,18.7774163 C12.5075598,18.7774163 12.2610526,18.8427943 12.2610526,18.8427943 C12.0038278,18.9392536 11.5536842,18.9499713 11.4465072,19.0571483 C11.2214354,19.2929378 10.8891866,18.8202871 10.8677512,18.7570526 C10.7927273,18.4998278 10.7605742,18.3176268 10.6855502,18.1139904 C10.4497608,17.5020096 10.2889952,16.9339713 10.042488,16.3123445 C9.935311,16.0561914 9.935311,15.5085167 9.82813397,15.4549282 C9.9245933,15.5085167 9.79598086,15.2727273 9.78526316,15.2620096 C9.62449761,15.1655502 9.69952153,14.5117703 9.58162679,14.3831579 C9.49588517,14.2866986 9.51732057,14.5010526 9.49588517,14.5010526 C9.6030622,14.8429474 9.2922488,15.5503158 9.41014354,15.6371292 C9.43157895,15.6596364 9.39942584,16.5802871 9.41014354,16.5802871 C9.47444976,16.8171483 9.33511962,17.9628708 9.19578947,18.2104498 C9.00287081,18.5426986 7.48095694,18.6809569 7.17014354,18.2961914 C6.92363636,17.9960957 6.55923445,17.3744689 6.37703349,17.0850909 C6.30200957,16.9768421 6.30200957,16.8171483 6.23770335,16.7314067 C5.90545455,16.3123445 6.01263158,16.8171483 6.02334928,17.0958086 C6.04478469,17.6424115 6.33416268,18.2533206 5.7554067,18.4569569 C5.26239234,18.6391579 4.45856459,18.7902775 4.27636364,18.340134 C4.07272727,17.8256842 4.1584689,16.6574545 4.05129187,16.4323828 C3.91196172,16.1751579 3.95483254,14.8783158 3.95483254,14.7497033 C3.96555024,14.5900096 3.99770335,14.0112536 3.98698565,13.9565933 C3.93339713,13.6114833 4.02985646,13.2363636 3.99770335,13.1077512 C3.8262201,12.4218182 4.68363636,12.3360766 4.97301435,12.2717703 C5.01588517,12.2610526 5.84114833,12.2932057 5.91617225,12.3896651 C6.03406699,12.5289952 5.96976077,12.5504306 6.14124402,12.754067 C6.46277512,13.1184689 6.67712919,13.9222967 6.91291866,14.2223923 C7.10583732,14.4592536 7.3523445,14.9726316 7.47023923,15.2405742 C7.6738756,15.6907177 7.54526316,14.3295694 7.72746411,13.9758852 C7.93110048,13.5900478 7.87751196,13.0541627 8.05971292,12.7433493 C8.29550239,12.3467943 8.43483254,11.5322488 8.71349282,11.1035407 C8.86354067,10.8570335 9.69952153,11.0392344 9.86028708,11.0713876 C10.331866,11.1678469 10.2782775,11.0070813 10.5998086,11.3393301 C10.8248804,11.5751196 11.1785646,13.1291866 11.3500478,13.7508134 C11.4250718,14.0080383 11.4465072,14.9404785 11.6501435,15.4870813 C11.7573206,15.7657416 12.1217225,16.8589474 12.1860287,17.5341627 L12.1860287,17.5448804 C12.282488,17.6627751 12.6361722,18.6809569 12.5289952,18.7774163 L12.5289952,18.7774163 Z" id="Shape"></path>
            </g>
        </g>
    </g>
</svg>