<?xml version="1.0" encoding="UTF-8" standalone="no"?>
<svg width="28px" height="28px" viewBox="0 0 28 28" version="1.1" xmlns="http://www.w3.org/2000/svg" xmlns:xlink="http://www.w3.org/1999/xlink">
    <!-- Generator: Sketch 3.6.1 (26313) - http://www.bohemiancoding.com/sketch -->
    <title>Shape</title>
    <desc>Created with Sketch.</desc>
    <defs></defs>
    <g id="Page-1" stroke="none" stroke-width="1" fill="none" fill-rule="evenodd">
        <g id="cfn-copy" transform="translate(-874.000000, -374.000000)" fill="#FFFFFF">
            <path d="M895.962009,390.397135 L894.14813,391.004386 L894.776381,392.882139 C895.031007,393.641641 894.621506,394.464142 893.86113,394.718768 C893.695755,394.774768 893.527754,394.798393 893.363254,394.794018 C892.770003,394.778268 892.223127,394.398517 892.024502,393.803516 L891.395375,391.926638 L887.654744,393.17964 L888.282995,395.056518 C888.53762,395.816895 888.12812,396.639396 887.367743,396.894021 C887.202368,396.949147 887.034368,396.972772 886.869867,396.968397 C886.276616,396.953522 885.72974,396.572896 885.531115,395.97877 L884.901989,394.101016 L883.088111,394.709143 C882.922735,394.764268 882.75386,394.787893 882.58936,394.783518 C881.996984,394.768643 881.450108,394.388017 881.250607,393.793016 C880.995982,393.033515 881.405483,392.211013 882.165859,391.956388 L883.980612,391.348262 L882.773985,387.74763 L880.960107,388.355756 C880.794732,388.410881 880.626731,388.434506 880.461356,388.430131 C879.86898,388.415256 879.322104,388.034631 879.122604,387.43963 C878.867978,386.680128 879.278354,385.857627 880.037855,385.603001 L881.852608,384.994875 L881.223482,383.117997 C880.968857,382.357621 881.378358,381.535119 882.138734,381.281369 C882.89911,381.026743 883.721612,381.436244 883.976237,382.19662 L884.604488,384.073499 L888.345995,382.820496 L887.716869,380.943618 C887.462243,380.183242 887.872619,379.36074 888.632121,379.106115 C889.392497,378.851489 890.214998,379.261865 890.469624,380.021366 L891.097875,381.89912 L892.912628,381.290994 C893.673005,381.036368 894.494631,381.446744 894.749256,382.206245 C895.003882,382.966622 894.594381,383.789123 893.834005,384.043749 L892.020127,384.651 L893.225879,388.252506 L895.040632,387.64438 C895.800133,387.39063 896.622635,387.80013 896.87726,388.559632 C897.131886,389.320008 896.722385,390.142509 895.962009,390.397135 M885.37502,386.628023 L886.580772,390.228654 L890.322279,388.975652 L889.116527,385.37502 L885.37502,386.628023 Z M900.827892,384.151374 C897.942137,374.529857 893.772755,372.285478 884.151238,375.172108 C874.530595,378.057863 872.285341,382.227245 875.171972,391.848762 C878.058602,401.469405 882.227984,403.714659 891.848626,400.828028 C901.470143,397.941398 903.714522,393.772016 900.827892,384.151374 Z" id="Shape"></path>
        </g>
    </g>
</svg>