<?xml version="1.0" encoding="UTF-8" standalone="no"?>
<svg width="836px" height="586px" viewBox="0 0 836 586" version="1.1" xmlns="http://www.w3.org/2000/svg" xmlns:xlink="http://www.w3.org/1999/xlink">
    <!-- Generator: Sketch 3.7 (28169) - http://www.bohemiancoding.com/sketch -->
    <title>Group 2</title>
    <desc>Created with Sketch.</desc>
    <defs>
        <linearGradient x1="50%" y1="0%" x2="50%" y2="100%" id="linearGradient-1">
            <stop stop-color="#0091E6" offset="0%"></stop>
            <stop stop-color="#0079BF" offset="100%"></stop>
        </linearGradient>
    </defs>
    <g id="Page-1" stroke="none" stroke-width="1" fill="none" fill-rule="evenodd">
        <g id="Group-2">
            <g id="taco" transform="translate(287.000000, 0.000000)">
                <g id="Page-1">
                    <g>
                        <g id="Original-Assets">
                            <g id="Group">
                                <g id="Mascots">
                                    <g id="Taco">
                                        <g id="Group">
                                            <g id="Head" transform="translate(0.000000, 77.393665)">
                                                <path d="M134.090812,218.334777 C170.464817,218.334777 190.866015,211.531034 202.893719,205.898948 C205.168982,201.594566 202.893719,188.692565 202.893719,188.692565 L62.557589,184.849764 C62.557589,184.849764 58.8298346,190.152711 58.8298346,202.919647 C69.0235388,210.024336 99.5475238,218.334777 134.090812,218.334777" id="Shape" fill="#0079BF"></path>
                                                <path d="M134.981875,160.275773 C223.816947,160.275773 261.46418,172.622433 261.46418,172.622433 C261.667083,172.762088 260.675554,170.930841 260.675554,148.423478 C260.675554,116.083896 253.899013,102.261354 251.364376,90.1585977 C240.743855,39.4252394 193.126832,0.451728959 132.506336,0.451728959 C81.3697143,0.451728959 37.7247168,28.2286 20.4287769,67.3456991 L20.3118947,67.2007991 C20.3118947,67.2007991 0.0965263158,109.960724 0.0965263158,172.587028 C18.4831479,157.855091 46.1487719,160.275773 134.981875,160.275773" id="Shape" fill="#81929C"></path>
                                                <path d="M118.938807,34.8035195 C108.538917,28.8704873 99.1161103,28.4180846 99.1161103,28.4180846 L117.749629,19.9706113 C117.749629,19.9706113 107.853383,16.2196027 97.9420351,22.9354882 C113.591118,3.42316244 131.840501,0.482544796 132.329043,0.453040271 C81.2653083,0.521884163 37.702391,28.2758072 20.4294336,67.3430765 L20.3125514,67.1981765 C20.3125514,67.1981765 0.0971829574,109.960068 0.0971829574,172.587028 C8.11346366,166.160287 17.8987368,163.000024 33.7474386,161.47628 L131.872677,71.7707222 C131.872677,71.7694109 116.291885,44.6855683 118.938807,34.8035195" id="Shape" fill="#576D7A"></path>
                                                <path d="M14.3561554,170.930841 L9.6040401,182.719538 C9.6040401,182.719538 30.0525163,177.034999 44.0685313,182.719538 C55.4376241,187.332078 72.7493233,203.425813 131.872677,202.904567 C190.997343,202.387254 225.303584,183.474198 234.216837,182.715604 C243.12812,181.95242 250.30587,182.719538 250.30587,182.719538 L245.50582,172.581783 L261.46418,172.622433 C261.46418,172.622433 259.450261,161.628392 252.901574,140.612647 C246.685805,120.665621 227.462622,116.672019 217.373323,119.072376 C237.781088,71.7694109 198.484371,44.6836014 173.213519,44.6836014 C155.301649,44.6836014 139.104927,53.729033 131.872677,71.7700665 C122.481388,51.8151729 108.327479,44.9589769 90.4169223,44.9589769 C65.1480401,44.9589769 25.6471078,71.7700665 46.2531779,119.212031 C34.6838095,118.285589 21.0420802,122.631278 11.3861654,140.612647 C3.26679198,161.668387 0.0971829574,172.587028 0.0971829574,172.587028 L14.3561554,170.930841 L14.3561554,170.930841 L14.3561554,170.930841 Z" id="Shape" fill="#FFFFFF"></path>
                                                <path d="M261.324972,172.547689 C249.917138,157.9141 225.57609,155.074453 195.717283,162.935114 C170.778692,169.500199 176.660887,184.608483 132.985028,184.744204 C89.3111378,184.872712 90.617198,156.621146 44.6614787,156.62967 C30.3650777,156.634259 13.0106967,158.832019 0.202245614,171.593709 C0.133954887,172.227729 0.097839599,172.586372 0.097839599,172.586372 L14.356812,170.930841 L9.60469674,182.719538 C9.60469674,182.719538 30.0531729,177.034999 44.069188,182.719538 C55.4382807,187.332078 72.7499799,203.425813 131.873333,202.904567 C190.998,202.387254 225.304241,183.474198 234.217494,182.715604 C243.128777,181.95242 250.306526,182.719538 250.306526,182.719538 L245.506476,172.581783 L261.324972,172.547689 L261.324972,172.547689 L261.324972,172.547689 Z" id="Shape" fill="#E1E4E6"></path>
                                            </g>
                                            <g id="Nose" transform="translate(108.217391, 214.226244)" fill="#333333">
                                                <path d="M46.7016642,12.3173656 C46.7016642,18.8286864 44.5570727,28.3960204 23.3508321,28.3960204 C2.68369424,28.3960204 0,18.8280308 0,12.3173656 C0,5.79817692 3.75533333,0.520145249 23.3508321,0.520145249 C44.0186266,0.520145249 46.7016642,5.79817692 46.7016642,12.3173656" id="Shape"></path>
                                            </g>
                                            <g id="Left-Eye" transform="translate(74.043478, 148.660633)">
                                                <path d="M27.85848,20.0836835 C27.85848,9.47090588 21.718881,0.863845882 14.159477,0.863845882 C6.59058806,0.863845882 0.453907474,9.47090588 0.453907474,20.0836835 C0.453907474,30.6964611 6.59058806,32.878878 14.159477,32.878878 C21.718881,32.8781568 27.85848,30.6964611 27.85848,20.0836835" id="Shape" fill="#0079BF"></path>
                                                <path d="M23.0773995,17.5009885 C23.0773995,12.636348 19.0893962,8.69631376 14.1696914,8.69631376 C9.24998656,8.69631376 5.2561464,12.636348 5.2561464,17.5009885 C5.2561464,22.3677927 9.24998656,26.311433 14.1696914,26.311433 C19.0893962,26.311433 23.0773995,22.3677927 23.0773995,17.5009885" id="Shape" fill="#000000"></path>
                                                <path d="M17.4076641,10.8729609 C17.4076641,14.1876959 15.0087334,16.8684771 12.0582238,16.8684771 C9.10479581,16.8684771 6.71170196,14.1876959 6.71170196,10.8729609 C6.71170196,7.56111077 9.10479581,4.87744475 12.0582238,4.87744475 C15.0087334,4.87744475 17.4076641,7.56038955 17.4076641,10.8729609" id="Shape" fill="#FFFFFF"></path>
                                            </g>
                                            <g id="Right-Eye" transform="translate(160.902174, 148.660633)">
                                                <path d="M27.85848,20.0836835 C27.85848,9.47090588 21.718881,0.863845882 14.159477,0.863845882 C6.59058806,0.863845882 0.453907474,9.47090588 0.453907474,20.0836835 C0.453907474,30.6964611 6.59058806,32.878878 14.159477,32.878878 C21.718881,32.8781568 27.85848,30.6964611 27.85848,20.0836835" id="Shape" fill="#0079BF"></path>
                                                <path d="M23.0773995,17.5009885 C23.0773995,12.636348 19.0893962,8.69631376 14.1696914,8.69631376 C9.24998656,8.69631376 5.2561464,12.636348 5.2561464,17.5009885 C5.2561464,22.3677927 9.24998656,26.311433 14.1696914,26.311433 C19.0893962,26.311433 23.0773995,22.3677927 23.0773995,17.5009885" id="Shape" fill="#000000"></path>
                                                <path d="M17.4076641,10.8729609 C17.4076641,14.1876959 15.0087334,16.8684771 12.0582238,16.8684771 C9.10479581,16.8684771 6.71170196,14.1876959 6.71170196,10.8729609 C6.71170196,7.56111077 9.10479581,4.87744475 12.0582238,4.87744475 C15.0087334,4.87744475 17.4076641,7.56038955 17.4076641,10.8729609" id="Shape" fill="#FFFFFF"></path>
                                            </g>
                                            <g id="Mouth" transform="translate(84.434783, 225.628959)">
                                                <path d="M6.49629007,11.909348 C6.49629007,11.909348 11.9877838,64.0451548 45.283453,67.7325647 C88.181849,72.4801706 92.0415883,11.2484466 92.0415883,11.2484466 C92.0415883,11.2484466 76.2014229,38.5021041 48.550245,36.5095652 C20.9010369,34.5144036 6.49629007,11.909348 6.49629007,11.909348" id="Shape" fill="#333333"></path>
                                                <path d="M19.6488214,26.9363303 L18.5193978,60.6121394 C19.1478039,74.8470891 32.1644104,89.0866285 48.1700495,89.0866285 C64.1776585,89.0866285 77.1922951,74.8470891 77.8200445,60.6121394 L79.0689768,26.2354339 C71.9391623,29.6153412 59.9771222,31.7613036 48.4668515,31.7613036 C37.7583402,31.7613036 29.1563352,29.913009 19.6488214,26.9363303" id="Shape" fill="#FFD2D5"></path>
                                                <path d="M40.2456986,80.3860719 C23.2419643,75.0509982 26.4220795,42.0492036 28.3092675,29.3419326 C25.4522199,28.6554606 22.5925457,27.8581828 19.6488214,26.9409199 L18.5193978,60.6082054 C19.1478039,74.8477448 32.1644104,89.0872842 48.1700495,89.0872842 C57.7668665,89.0872842 66.2624956,83.9580864 71.6843853,76.7852086 C65.1645908,81.295467 54.8356184,84.9664855 40.2456986,80.3860719" id="Shape" fill="#E8AFB4"></path>
                                                <path d="M48.4668515,31.7613036 C37.7576836,31.7613036 29.1563352,29.913009 19.6481648,26.936986 L19.1917988,40.5241475 C23.9366911,44.0633792 32.8243352,51.3332941 47.2120094,54.6784516 C44.3871372,42.3875222 40.4472876,34.5026018 40.4472876,34.5026018 L55.8796785,34.5026018 C55.8796785,34.5026018 57.8725858,42.6799448 55.8711422,53.4812235 C66.8836785,51.0625081 74.0095532,45.773986 78.5502299,40.5457842 L79.0689768,26.2354339 C71.9391623,29.6153412 59.9771222,31.7613036 48.4668515,31.7613036" id="Shape" fill="#E8AFB4"></path>
                                                <path d="M47.2120094,54.6777959 C48.2692024,59.2687 49.1720846,64.4555955 49.6560294,70.0994833 C53.0731923,64.3572471 54.9209818,58.6215674 55.8757387,53.4799122 C53.2820044,54.0477104 50.4801146,54.4614294 47.4378941,54.6686167 C47.3590971,54.6777959 47.2934329,54.673862 47.2120094,54.6777959" id="Shape" fill="#E8AFB4"></path>
                                                <path d="M55.8803352,34.5019462 L40.4479442,34.5019462 C40.4479442,34.5019462 44.3877938,42.3868665 47.212666,54.6777959 C47.2940896,54.673862 47.3597537,54.6777959 47.4385507,54.6692724 C50.4807713,54.4620851 53.2820044,54.0483661 55.8724555,53.4805679 C57.8732425,42.6786335 55.8803352,34.5019462 55.8803352,34.5019462" id="Shape" fill="#D1868F"></path>
                                                <path d="M96.2335883,3.05602353 C93.2603151,16.7015385 79.0689768,34.5019462 48.550245,36.5089095 C18.7019442,38.4712882 0.461753732,13.3117964 0.461753732,0.683204072 C0.461753732,0.683204072 13.5079091,31.7901525 48.4675081,31.760648 C83.4297337,31.735733 96.2335883,3.05602353 96.2335883,3.05602353" id="Shape" fill="#333333"></path>
                                            </g>
                                            <g id="Left-Ear" transform="translate(17.510870, 0.000000)">
                                                <path d="M99.0417019,82.7260982 C76.8058472,27.8194887 40.8698222,-0.645165611 34.0558522,0.01180181 C27.2392557,0.671391855 10.8941329,35.8178376 2.7635966,77.8467054 C-4.19943097,113.860584 5.80581715,151.430335 5.80581715,151.430335" id="Shape" fill="#576D7A"></path>
                                                <path d="M67.3639976,76.6252181 C71.8619926,62.7567801 46.830158,11.155333 36.1019475,9.08477104 C28.8926793,7.69871403 18.3732808,36.4879181 9.9859976,75.70271 C1.5908347,114.916846 10.0503485,137.616316 10.0503485,137.616316 C10.0503485,137.616316 13.8588698,109.38901 34.8208397,95.2766674 C55.7867495,81.163014 62.8692858,90.4890665 67.3639976,76.6252181" id="Shape" fill="#BEC7CC"></path>
                                                <path d="M64.1878222,72.6821023 C64.024975,80.0084036 45.1110703,79.6845095 29.2387294,91.0122801 C33.7242482,76.3977054 44.045341,74.3028842 44.045341,74.3028842 C44.045341,74.3028842 31.599356,68.8792968 26.700153,61.9870398 C31.5652106,60.1748063 43.1601881,63.632081 43.1601881,63.632081 C43.1601881,63.632081 33.9297771,57.6249597 32.3203485,41.7679167 C41.4483234,42.9061357 45.0552557,53.2399317 45.0552557,53.2399317 C45.0552557,53.2399317 37.9911054,36.640686 45.3612507,27.1966154 C48.3568497,31.3338054 64.446539,60.8101371 64.1878222,72.6821023" id="Shape" fill="#D5DBDE"></path>
                                            </g>
                                            <g id="Right-Ear" transform="translate(148.086957, 0.000000)">
                                                <path d="M0.451940721,82.7260982 C22.6917352,27.8194887 58.6238204,-0.645165611 65.4397603,0.01180181 C72.2517603,0.671391855 88.6001663,35.8178376 96.7267628,77.8467054 C103.696357,113.860584 93.6845422,151.430335 93.6845422,151.430335" id="Shape" fill="#81929C"></path>
                                                <path d="M32.1289883,76.6252181 C27.6309934,62.7567801 52.6628279,11.155333 63.3910385,9.08477104 C70.6042465,7.69871403 81.1177352,36.4879181 89.5135548,75.70271 C97.9028079,114.916846 88.188452,130.528674 88.188452,130.528674 C88.188452,130.528674 85.6367427,109.38901 64.670833,95.2766674 C43.7134595,81.163014 36.6296099,90.4890665 32.1289883,76.6252181" id="Shape" fill="#D5DBDE"></path>
                                                <path d="M35.3097603,72.6821023 C35.4686675,80.0084036 54.3845422,79.6845095 70.2522866,91.0122801 C65.7687377,76.3977054 55.4483016,74.3028842 55.4483016,74.3028842 C55.4483016,74.3028842 67.8982264,68.8792968 72.790863,61.9870398 C67.9277753,60.1748063 56.3347678,63.632081 56.3347678,63.632081 C56.3347678,63.632081 65.5651788,57.6249597 67.1693543,41.7679167 C58.0459758,42.9061357 54.44167,53.2399317 54.44167,53.2399317 C54.44167,53.2399317 61.5058204,36.640686 54.1291086,27.1966154 C51.1348229,31.3338054 35.0503868,60.8101371 35.3097603,72.6821023" id="Shape" fill="#F0F2F3"></path>
                                            </g>
                                        </g>
                                    </g>
                                </g>
                            </g>
                        </g>
                    </g>
                </g>
            </g>
            <g id="trello-logo-blue" transform="translate(0.000000, 349.000000)">
                <g id="Page-1">
                    <g>
                        <g id="Original-Assets">
                            <g id="Group">
                                <g id="Trello-Logo">
                                    <g id="Trello-Logo---Blue">
                                        <g id="Logo">
                                            <g id="Group">
                                                <path d="M673.29354,177.589525 C660.522868,182.793147 650.445278,200.770881 635.1184,210.9888 C634.168,211.6224 633.2176,211.9392 632.584,211.9392 C631.3168,211.9392 629.7328,210.672 629.7328,204.9696 C629.7328,185.328 636.0688,175.824 641.4544,161.8848 C660.1456,113.4144 692.1424,71.9136 720.6544,26.6112 C722.872,23.1264 724.1392,19.3248 724.1392,15.2064 C724.1392,11.7216 722.872,8.8704 721.288,5.3856 C720.0208,2.5344 714.3184,0 707.9824,0 C704.4976,0 701.3296,0.3168 697.2112,0.3168 C682.3216,0.3168 679.1536,22.176 675.6688,27.8784 C651.9088,68.112 624.664,117.8496 610.7248,153.0144 C607.668102,160.897464 604.366309,168.780528 601.85663,176.871034 C588.081883,180.859826 577.762454,200.227697 561.6208,210.9888 C560.6704,211.6224 559.72,211.9392 559.0864,211.9392 C557.8192,211.9392 556.2352,210.672 556.2352,204.9696 C556.2352,185.328 562.5712,175.824 567.9568,161.8848 C586.648,113.4144 618.6448,71.9136 647.1568,26.6112 C649.3744,23.1264 650.6416,19.3248 650.6416,15.2064 C650.6416,11.7216 649.3744,8.8704 647.7904,5.3856 C646.5232,2.5344 640.8208,0 634.4848,0 C631,0 627.832,0.3168 623.7136,0.3168 C608.824,0.3168 605.656,22.176 602.1712,27.8784 C578.4112,68.112 551.1664,117.8496 537.2272,153.0144 C536.119038,155.872292 534.978662,158.730185 533.855495,161.597962 C533.508659,161.783218 533.154477,161.984114 532.792,162.2016 C516.6352,171.7056 503.0128,188.496 483.3712,199.9008 C479.5696,202.1184 467.848,210.3552 458.344,210.3552 C456.1264,210.3552 454.2256,209.7216 452.3248,208.7712 C449.4736,207.504 446.6224,201.4848 446.6224,199.584 C446.6224,198 446.9392,197.6832 450.1072,195.7824 C477.9856,178.992 500.7952,154.9152 520.4368,130.8384 C527.7232,121.968 537.2272,104.544 537.2272,91.872 C537.2272,83.6352 534.376,74.1312 524.5552,70.6464 C517.5856,68.112 509.6656,66.8448 503.3296,66.8448 C486.5392,66.8448 474.184,74.448 467.2144,81.7344 C460.118962,89.3092596 453.25569,97.087265 446.87931,105.138685 C440.217004,99.3868496 430.819897,96.9408 421.912,96.9408 C411.4576,96.9408 391.816,109.9296 381.6784,117.5328 C380.0944,118.8 379.144,119.4336 378.5104,119.4336 C378.1936,119.4336 377.8768,119.1168 377.8768,118.4832 C377.8768,118.1664 378.5104,115.3152 378.5104,110.2464 C378.5104,105.8112 377.56,100.1088 373.4416,93.1392 C372.4912,91.5552 366.7888,88.0704 359.8192,88.0704 C351.2656,88.0704 343.3456,92.1888 343.3456,96.624 C343.3456,99.792 346.1968,101.0592 346.1968,103.9104 C346.1968,105.4944 344.9296,112.7808 343.0288,119.7504 C337.6432,140.0256 330.9904,159.984 324.0208,179.9424 C320.2192,191.0304 307.5472,200.8512 307.5472,212.8896 C307.5472,216.6912 310.0816,221.76 313.5664,225.5616 C319.2688,231.8976 322.7536,234.1152 327.8224,234.1152 C330.04,234.1152 332.5744,233.4816 334.792,231.5808 C339.544,227.4624 342.0784,223.344 343.3456,217.6416 C351.5824,180.2592 375.3424,154.9152 401.6368,138.1248 C410.5072,132.4224 422.5456,126.4032 424.1296,126.4032 C425.753839,126.4032 428.294103,127.152675 430.853793,127.883111 C423.503522,139.871969 417.547939,152.515386 413.6752,166.0032 C412.408,170.4384 411.7744,174.5568 411.7744,178.992 C411.7744,186.2784 413.3584,193.8816 415.8928,201.168 C419.3776,211.3056 425.08,220.176 433,224.2944 C447.5728,231.8976 458.0272,236.016 467.5312,236.016 C472.9168,236.016 477.0352,235.0656 481.4704,232.5312 C502.292673,220.750177 515.058884,211.81247 524.277157,203.873846 C524.529918,211.922923 526.116566,216.382314 531.8416,222.3936 C537.544,228.4128 546.4144,233.7984 558.136,236.3328 C560.0368,236.6496 561.9376,236.9664 563.8384,236.9664 C577.249499,236.9664 590.155947,226.065941 600.108075,215.260049 C601.260342,217.618088 602.9348,219.86898 605.3392,222.3936 C611.0416,228.4128 619.912,233.7984 631.6336,236.3328 C633.5344,236.6496 635.4352,236.9664 637.336,236.9664 C653.045767,236.9664 668.063062,222.00902 678.45036,209.767345 C681.912282,216.927848 691.586543,224.007351 703.2304,229.68 C706.3984,231.264 710.2,232.2144 713.6848,232.2144 C727.3072,232.2144 737.128,221.1264 744.7312,212.8896 C764.3728,191.3472 775.144,164.736 783.3808,131.1552 C784.0144,128.6208 784.9648,127.6704 786.232,127.6704 C789.4,127.6704 793.5184,127.6704 797.9536,127.0368 C806.5072,125.7696 813.16,122.9184 821.08,121.6512 C825.832,120.7008 825.1984,119.1168 829.6336,117.5328 C832.8016,116.2656 835.336,114.9984 835.336,111.8304 C835.336,106.4448 825.5152,100.7424 810.6256,100.7424 C798.904,100.7424 791.9344,101.6928 787.1824,101.6928 C779.896,101.6928 777.9952,99.4752 773.2432,87.12 C773.2432,87.12 777.9952,99.4752 773.2432,87.12 C772.2928,84.5856 771.3424,83.3184 768.4912,80.784 C761.8384,75.0816 753.6016,73.1808 746.9488,73.1808 C731.1088,73.1808 717.4864,89.3376 707.9824,102.96 C705.7648,106.128 702.5968,108.6624 700.3792,112.1472 C687.329185,131.722222 674.834513,153.79629 673.29354,177.589525 L673.29354,177.589525 Z M268.264,69.696 C276.184,69.696 280.6192,69.0624 281.5696,69.0624 C282.52,69.0624 283.1536,69.3792 283.1536,70.3296 C283.1536,70.9632 282.8368,71.9136 280.6192,76.6656 C261.2944,118.1664 247.9888,160.3008 236.2672,206.8704 C235.9504,208.1376 235,212.8896 235,217.6416 C235,222.0768 236.2672,226.8288 240.7024,229.3632 C249.256,234.432 256.2256,236.6496 260.9776,236.6496 C267.9472,236.6496 271.432,232.2144 271.432,224.928 C271.432,218.592 271.7488,211.9392 272.6992,206.8704 C281.5696,160.3008 294.8752,123.8688 315.4672,85.8528 C325.288,67.7952 326.5552,66.8448 326.5552,65.2608 C326.5552,64.6272 326.2384,63.6768 325.6048,62.7264 C338.2768,59.8752 353.4832,57.9744 367.4224,57.9744 C369.0064,57.9744 375.3424,60.192 376.2928,61.1424 C378.5104,63.36 380.728,65.5776 384.5296,65.5776 C387.6976,65.5776 393.0832,63.36 394.984,62.0928 C399.4192,58.9248 401.6368,55.44 401.6368,49.7376 C401.6368,44.352 381.6784,31.0464 367.7392,31.0464 C350.632,31.0464 335.1088,33.264 320.536,36.1152 C314.2,37.3824 291.3904,40.8672 274.9168,40.8672 C259.0768,40.8672 260.0272,38.6496 253.3744,38.6496 C249.5728,38.6496 247.672,40.5504 246.088,42.1344 C244.504,43.7184 243.5536,50.0544 243.5536,55.7568 C243.5536,58.608 243.5536,60.8256 245.1376,62.7264 C249.8896,68.4288 259.0768,69.696 268.264,69.696 C268.264,69.696 259.0768,69.696 268.264,69.696 L268.264,69.696 Z M503.0128,95.3568 C503.0128,98.208 502.0624,100.1088 498.2608,106.128 C494.4592,112.1472 496.0432,112.1472 491.2912,118.4832 C482.104,130.8384 470.6992,143.1936 455.8096,156.816 C451.6912,160.6176 451.0576,160.6176 450.424,160.6176 C450.1072,160.6176 449.4736,160.3008 449.4736,159.6672 C449.4736,158.7168 449.7904,157.4496 452.9584,150.7968 C462.7792,130.2048 474.8176,116.5824 488.1232,103.2768 C495.4096,95.9904 499.8448,93.456 501.4288,93.456 C502.3792,93.456 503.0128,93.7728 503.0128,95.3568 C503.0128,95.3568 503.0128,93.7728 503.0128,95.3568 L503.0128,95.3568 Z M746.632,103.5936 C746.9488,103.5936 747.2656,103.9104 747.5824,104.544 C747.8992,105.4944 748.5328,106.4448 750.1168,107.712 C751.384,108.6624 751.384,113.0976 751.384,116.5824 C751.384,147.312 733.96,172.656 716.8528,198.3168 C713.0512,204.0192 710.8336,204.9696 708.9328,204.9696 C707.3488,204.9696 704.8144,200.8512 703.864,198.3168 C702.5968,194.832 702.28,190.7136 702.28,189.1296 C702.28,164.4192 725.7232,127.6704 741.2464,107.3952 C743.7808,103.9104 745.6816,103.5936 746.632,103.5936 C746.632,103.5936 745.6816,103.5936 746.632,103.5936 L746.632,103.5936 Z" id="Type" fill="url(#linearGradient-1)"></path>
                                                <g id="Mark" transform="translate(0.000000, 35.000000)">
                                                    <rect id="Board" fill="url(#linearGradient-1)" x="0" y="0" width="200" height="200" rx="25"></rect>
                                                    <rect id="Right-List" fill="#FFFFFF" x="113" y="26" width="61" height="87.5" rx="12"></rect>
                                                    <rect id="Left-List" fill="#FFFFFF" x="26" y="26" width="61" height="137.5" rx="12"></rect>
                                                </g>
                                            </g>
                                        </g>
                                    </g>
                                </g>
                            </g>
                        </g>
                    </g>
                </g>
            </g>
        </g>
    </g>
</svg>