<svg width="33" height="28" viewBox="0 0 33 28" xmlns="http://www.w3.org/2000/svg"><title>Twitter</title><path d="M28.818 4.427c1.385-.874 2.447-2.26 2.946-3.91-1.297.812-2.73 1.398-4.257 1.716C26.287.857 24.545 0 22.617 0c-3.702 0-6.7 3.165-6.7 7.068 0 .554.055 1.094.17 1.61C10.52 8.38 5.582 5.57 2.274 1.29c-.577 1.048-.907 2.26-.907 3.555 0 2.45 1.183 4.615 2.982 5.885-1.1-.036-2.133-.358-3.04-.884v.087c0 3.426 2.31 6.283 5.38 6.93-.564.166-1.154.25-1.768.25-.43 0-.853-.043-1.26-.126.852 2.806 3.327 4.852 6.26 4.907-2.295 1.897-5.184 3.025-8.323 3.025-.542 0-1.077-.03-1.6-.097C2.966 26.83 6.488 28 10.273 28 22.603 28 29.34 17.23 29.34 7.89c0-.31-.004-.614-.017-.915 1.31-.997 2.448-2.243 3.344-3.66-1.203.562-2.495.942-3.85 1.112z" fill="#FFF" fill-rule="evenodd"/></svg>